inDegrees=yes
name=ik_lifting_orientations
DataType=double
version=3
OpenSimVersion=4.5-2024-01-10-34fd6af
endheader
time	pelvis_tilt	pelvis_list	pelvis_rotation	pelvis_tx	pelvis_ty	pelvis_tz	hip_flexion_r	hip_adduction_r	hip_rotation_r	knee_angle_r	knee_angle_r_beta	ankle_angle_r	subtalar_angle_r	mtp_angle_r	hip_flexion_l	hip_adduction_l	hip_rotation_l	knee_angle_l	knee_angle_l_beta	ankle_angle_l	subtalar_angle_l	mtp_angle_l	lumbar_extension	lumbar_bending	lumbar_rotation	arm_flex_r	arm_add_r	arm_rot_r	elbow_flex_r	pro_sup_r	wrist_flex_r	wrist_dev_r	arm_flex_l	arm_add_l	arm_rot_l	elbow_flex_l	pro_sup_l	wrist_flex_l	wrist_dev_l
0.68	-8.86967215594815	5.186413446309094	25.52778189373639	0	0.9399999998679526	0	44.88478690710886	-10.00716048948041	0	60.15062893081135	1.049826521988015	-4.995568795125859	0	0	44.88478690710886	-10.00716048948041	0	60.15062893081135	1.049826521988015	-4.995568795125859	0	0	-41.95079217566491	-14.57992080848813	12.3769318971841	80.34848614193382	-35.00052117437448	-4.510970866281834	0.01458484807806364	-0.07952596792278209	0	0	0	-13.76140837636549	0	90.14111218078152	-0.07952596792278209	0	0
0.6899999999999999	-7.180483785072463	4.578073337628527	24.54216189006628	0	0.9399999998679526	0	44.8881708307926	-10.00652974495065	0	60.14700447178194	1.049763263244348	-4.996053247111128	0	0	44.8881708307926	-10.00652974495065	0	60.14700447178194	1.049763263244348	-4.996053247111128	0	0	-42.88360216407943	-14.17166354895157	13.87101108014959	82.62850523695167	-35.87047301211771	-3.065413810330798	0.01564999967828041	-0.07785703528542837	0	0	0	-13.78095460641249	0	90.13814527938442	-0.07785703528542837	0	0
0.7	-5.504692434116253	3.93880856629547	23.53588588917662	0	0.9399999998679526	0	44.8924895384633	-10.00578776784548	0	60.14239248376866	1.049682768868453	-4.996604523871328	0	0	44.8924895384633	-10.00578776784548	0	60.14239248376866	1.049682768868453	-4.996604523871328	0	0	-42.477463999122	-14.30911408089381	14.91552164342522	83.02858833473532	-36.01595700643315	-2.191365729894055	0.01490037861966333	-0.07570834312209408	0	0	0	-13.80623149474771	0	90.13432549868533	-0.07570834312209408	0	0
0.71	-3.836680249635585	3.26726660732269	22.60158858250717	0	0.9399999998679526	0	44.89662257963345	-10.00514057698546	0	60.13791867955452	1.049604686254827	-4.997070149894314	0	0	44.89662257963345	-10.00514057698546	0	60.13791867955452	1.049604686254827	-4.997070149894314	0	0	-42.2613328714935	-13.36820695282305	15.77044923669089	82.95257808072328	-36.13513405600379	-0.6264657322437459	0.01461409509866607	-0.0736219094309665	0	0	0	-13.83101370295856	0	90.13061639736547	-0.0736219094309665	0	0
0.72	-2.708073964046316	2.237438522378309	22.45173485215337	0	0.9399999998679526	0	44.90067411845888	-10.00454682923936	0	60.13354290941476	1.049528314658578	-4.997486002260771	0	0	44.90067411845888	-10.00454682923936	0	60.13354290941476	1.049528314658578	-4.997486002260771	0	0	-41.38897020539454	-12.81415813367971	16.26252978067981	83.41779000632251	-36.23128274911483	0.308213107548117	0.01399906365191115	-0.07156215410400771	0	0	0	-13.85556508138595	0	90.12695472324465	-0.07156215410400771	0	0
0.73	-1.386738347303009	2.003206278422683	22.11539374695329	0	0.9399999998679526	0	44.90375898036776	-10.00412461633854	0	60.13018489919411	1.049469706323912	-4.997774614258014	0	0	44.90375898036776	-10.00412461633854	0	60.13018489919411	1.049469706323912	-4.997774614258014	0	0	-42.37136543048702	-12.45611208866475	16.96575228037561	84.91819097587644	-37.89475801761174	2.297602257276997	0.01507215236405183	-0.06997789013075496	0	0	0	-13.87457184746205	0	90.12413834147893	-0.06997789013075496	0	0
0.74	-1.059372534807522	1.524910625557003	21.54867089703245	0	0.9399999998679526	0	44.9073288326943	-10.00367119460316	0	60.12628718432172	1.049401678366085	-4.998075719330668	0	0	44.9073288326943	-10.00367119460316	0	60.12628718432172	1.049401678366085	-4.998075719330668	0	0	-41.01896303224851	-11.52128766943799	17.76992806872658	85.68418007993775	-39.02094394352867	4.835936134477214	0.01524511179096378	-0.06812708360751028	0	0	0	-13.89690026518718	0	90.12084812155919	-0.06812708360751028	0	0
0.75	0.2300504138812626	1.289186173507073	21.21477799944996	0	0.9399999998679526	0	44.90766930987975	-10.00363832717177	0	60.12582941226697	1.049393688736506	-4.998096433861383	0	0	44.90766930987975	-10.00363832717177	0	60.12582941226697	1.049393688736506	-4.998096433861383	0	0	-40.12590201520018	-11.05391687267265	17.22798669844613	84.83156603914682	-39.28824100640112	6.273500839717884	0.0156801225499759	-0.06793616767043967	0	0	0	-13.89935400409258	0	90.12050872650427	-0.06793616767043967	0	0
0.76	0.5718631419400554	0.8051147227565862	20.64956125010887	0	0.9399999998679526	0	44.91120264981372	-10.00322715097388	0	60.12195345310253	1.049326040487413	-4.998360677813944	0	0	44.91120264981372	-10.00322715097388	0	60.12195345310253	1.049326040487413	-4.998360677813944	0	0	-39.01965230989522	-11.66304718778013	16.79567442460243	84.75556172565197	-38.90167113432005	6.826049723737074	0.01667907948107652	-0.06608288969342022	0	0	0	-13.92186844239921	0	90.11721411368396	-0.06608288969342022	0	0
0.77	1.361745995783705	0.236462687555337	21.13534587161003	0	0.9399999998679526	0	44.91156041776402	-10.0031949498772	0	60.12147226470593	1.04931764216557	-4.998380436046215	0	0	44.91156041776402	-10.0031949498772	0	60.12147226470593	1.04931764216557	-4.998380436046215	0	0	-36.96018936841022	-10.21259458191256	16.29308668222436	83.82956446887459	-39.29406380286112	8.804372665442886	0.01842889717913484	-0.06588048721962933	0	0	0	-13.92448342321961	0	90.11685429883025	-0.06588048721962933	0	0
0.78	2.767162540223453	0.8634796709681213	20.07160103071209	0	0.9399999998679526	0	44.91193107822854	-10.00316086669848	0	60.12097726750602	1.049309002834644	-4.998401490639079	0	0	44.91193107822854	-10.00316086669848	0	60.12097726750602	1.049309002834644	-4.998401490639079	0	0	-39.57297305205704	-13.65321584854541	13.86393860339977	86.36783049236222	-38.40726605696037	8.887826469703866	0.01998893455285505	-0.06567157505935425	0	0	0	-13.92717556803621	0	90.11648291155782	-0.06567157505935425	0	0
0.79	4.040179212098105	0.5876058958482021	19.75134196848036	0	0.9399999998679526	0	44.9122397947903	-10.00313281058174	0	60.12056658439163	1.049301835062115	-4.998418730998111	0	0	44.9122397947903	-10.00313281058174	0	60.12056658439163	1.049301835062115	-4.998418730998111	0	0	-39.26541886454499	-13.68079502040853	14.06796949579392	87.40787137035426	-39.34160945598444	11.21818790603582	0.02540615277865457	-0.06549740724014884	0	0	0	-13.9294208331147	0	90.1161732899899	-0.06549740724014884	0	0
0.8	4.384364997741903	0.06997448096308706	19.19424489750315	0	0.9399999998679526	0	44.91254764354809	-10.00310505135635	0	60.12015575166437	1.04929466467835	-4.998435753081745	0	0	44.91254764354809	-10.00310505135635	0	60.12015575166437	1.04929466467835	-4.998435753081745	0	0	-37.2072908516114	-13.55581864897771	15.02487495051692	87.40071299386685	-39.77971755338834	14.16719259904139	0.03151018824101924	-0.0653234312930889	0	0	0	-13.93166647980891	0	90.11586400952554	-0.0653234312930889	0	0
0.8100000000000001	5.178851064768787	-0.487134679039066	19.72166682560632	0	0.9399999998679526	0	44.91290257441949	-10.00307293052823	0	60.11968229423991	1.049286401287425	-4.998455476624712	0	0	44.91290257441949	-10.00307293052823	0	60.11968229423991	1.049286401287425	-4.998455476624712	0	0	-37.35791421510627	-12.49941106442083	13.66215707576887	89.94716728568181	-40.44797697910649	17.67218738317277	0.03939732466583222	-0.06512292467255534	0	0	0	-13.93425408746403	0	90.11550756495936	-0.06512292467255534	0	0
0.82	5.645993066328661	-0.2065190553063053	18.90820335555683	0	0.9399999998679526	0	44.91314379492027	-10.0030503951163	0	60.11936804349095	1.049280916577179	-4.998469406419496	0	0	44.91314379492027	-10.0030503951163	0	60.11936804349095	1.049280916577179	-4.998469406419496	0	0	-36.53013640372485	-13.45530192133054	13.76822171841675	90.92097927490603	-40.84755786102784	19.66339840097982	0.06338710556068711	-0.06498776763086495	0	0	0	-13.93598729818217	0	90.1152672935934	-0.06498776763086495	0	0
0.83	6.775131765721398	-1.290616781648195	18.89043150252235	0	0.9399999998679526	0	44.91347303879886	-10.00302121901001	0	60.11892919898253	1.049273257295602	-4.998487176573364	0	0	44.91347303879886	-10.00302121901001	0	60.11892919898253	1.049273257295602	-4.998487176573364	0	0	-36.64744258546629	-12.27582224813039	13.22625254485719	92.09429594648732	-40.7607543023988	22.48083212563687	0.1539280418669023	-0.06480125904756708	0	0	0	-13.93839825570485	0	90.11493573362652	-0.06480125904756708	0	0
0.84	6.760392844789197	-1.303826935338297	18.90225022072184	0	0.9399999998679526	0	44.91376611832757	-10.00299565515196	0	60.11853576046763	1.049266390498113	-4.998502681366626	0	0	44.91376611832757	-10.00299565515196	0	60.11853576046763	1.049266390498113	-4.998502681366626	0	0	-34.61391317347802	-12.27236510611078	13.29965511793395	91.7350560470249	-41.7984833257195	24.90897571546763	0.7388666770659973	-0.06463466391085979	0	0	0	-13.94055729504291	0	90.11463957420072	-0.06463466391085979	0	0
0.85	7.568969364059846	-1.567235925999836	17.53814513219421	0	0.9399999998679526	0	44.91432009067428	-10.0029473134655	0	60.11779776085333	1.049253509974965	-4.998531945288931	0	0	44.91432009067428	-10.0029473134655	0	60.11779776085333	1.049253509974965	-4.998531945288931	0	0	-34.50041146552417	-12.13896466384097	14.04259413765776	92.56541964480488	-43.2025302279437	27.55826549900829	2.951318316161853	-0.06432021201345967	0	0	0	-13.94462725256301	0	90.11408056691143	-0.06432021201345967	0	0
0.86	8.338018810041012	-2.120060745136732	18.0946322359151	0	0.9399999998679526	0	44.91472624953321	-10.00291266669664	0	60.11725181884681	1.049243981489427	-4.998552791898842	0	0	44.91472624953321	-10.00291266669664	0	60.11725181884681	1.049243981489427	-4.998552791898842	0	0	-33.14257079547966	-11.57997770688093	13.35880654701849	92.07315345011106	-43.42502241032752	29.97530124119242	4.304608933879622	-0.06408854330667885	0	0	0	-13.94763642892691	0	90.11366872495118	-0.06408854330667885	0	0
0.87	8.976628148464581	-1.307110977033157	18.34728370222771	0	0.9399999998679526	0	44.91513993929394	-10.00287731458694	0	60.11669744685741	1.049234305872931	-4.998574068037818	0	0	44.91513993929394	-10.00287731458694	0	60.11669744685741	1.049234305872931	-4.998574068037818	0	0	-33.6217944770064	-11.4717980868618	12.10847609633545	93.67526955988377	-44.46574524185131	33.50576559643613	6.366220495095742	-0.06385270077074263	0	0	0	-13.95069856384322	0	90.11324946309031	-0.06385270077074263	0	0
0.88	9.415923861842423	-1.045659947334824	17.55220551681832	0	0.9399999998679526	0	44.91574341953566	-10.00282513955528	0	60.11589923555021	1.049220374457493	-4.998605503317034	0	0	44.91574341953566	-10.00282513955528	0	60.11589923555021	1.049220374457493	-4.998605503317034	0	0	-32.8591467618288	-12.84223909722195	11.55497180809639	92.02496996023768	-45.79293367987569	34.72289172814911	10.81506896015334	-0.06350995723521295	0	0	0	-13.95513518528239	0	90.11264016120631	-0.06350995723521295	0	0
0.89	9.786982347232628	-1.612144284897357	17.00442586778994	0	0.9399999998679526	0	44.91613542622302	-10.00279132004986	0	60.11538042848903	1.049211319566093	-4.998625880141419	0	0	44.91613542622302	-10.00279132004986	0	60.11538042848903	1.049211319566093	-4.998625880141419	0	0	-31.58126972537218	-11.7086589565004	12.17804666528093	93.78822876833972	-46.94728560650493	39.83106026236822	12.02210978099692	-0.06328712928338112	0	0	0	-13.95802157611513	0	90.11224403560583	-0.06328712928338112	0	0
